<?xml version="1.0" encoding="UTF-8"?>
<svg id="_Слой_1" data-name="Слой 1" xmlns="http://www.w3.org/2000/svg" viewBox="0 0 699.26 841.89">
  <defs>
    <style>
      .cls-1 {
        fill: #fff;
        stroke: #1d1d1b;
        stroke-miterlimit: 10;
        stroke-width: .25px;
      }
    </style>
  </defs>
  <path class="cls-1" d="M671.47,782.86c-4.1-25.5-7.68-51.1-12.67-76.43-1.22-6.18-6.28-12.25-10.97-16.99-73.7-74.26-147.61-148.3-221.57-222.3-3.8-3.8-8.52-6.69-12.77-9.96,39.65-39.31,77.08-76.43,115.73-114.76,25.9,35.53,69.99,34.83,107.82,49.32-32.01-31.4-64.03-62.79-97.12-95.24,34.04-33.94,66.03-65.91,98.17-97.74,1.98-1.96,5.01-3.79,7.67-3.97,20.19-1.39,30.88-13.9,37.67-31.26v619.32h-11.97Z"/>
  <path class="cls-1" d="M7.27,163.54c6.79,17.34,17.47,29.86,37.65,31.26,2.66.18,5.69,2.01,7.67,3.96,32.23,31.74,64.31,63.62,97.4,96.42-33.37,32.32-65.42,63.36-97.48,94.41.98,1.38,1.96,2.75,2.93,4.13,18.74-6.24,38.01-11.25,56.06-19.08,18.11-7.85,35-18.52,52.33-27.9,34.89,34.8,72.48,72.29,111.46,111.17-45.92,45.51-93.34,92.37-140.6,139.38-27.54,27.39-54.15,55.76-82.51,82.26-13.93,13.01-21.75,27.25-23.84,45.95-2.15,19.22-6,38.25-9.11,57.37H7.29c-.01-206.44-.01-412.88-.01-619.32Z"/>
  <path class="cls-1" d="M635.57,115.67c-17.15,7.03-29.85,17.58-30.74,37.9-.1,2.25-1.39,4.95-3.01,6.57-32.32,32.36-64.76,64.6-97.9,97.57-31.77-31.61-63.05-62.72-94.33-93.84,13.35,37.39,12.57,80.78,48.22,106.4-38.19,37.9-75.56,74.98-111.73,110.87-35.83-35.58-73.45-72.94-111.95-111.16,34.97-25.51,33.55-70.51,49.72-107.42-31.59,31.59-63.19,63.18-95.75,95.73-4.12-3.59-7.51-6.19-10.5-9.19-27.82-27.87-55.76-55.62-83.14-83.91-4.42-4.57-7.6-11.36-8.99-17.65-3.77-17.09-15.57-25.69-30.34-31.87h580.43Z"/>
  <path class="cls-1" d="M25.22,782.86c20.35-3.92,40.91-7.01,60.95-12.13,9.51-2.42,19.93-6.79,26.71-13.52,73.59-72.96,146.56-146.56,219.61-220.06,3.83-3.86,6.92-8.47,14.62-18.03,4.76,7.87,6.99,13.84,11.08,17.96,70.14,70.78,140.93,140.92,210.5,212.26,14.54,14.91,30.13,22.66,50.25,24.83,15.64,1.68,31.03,5.71,46.54,8.69H25.22Z"/>
  <path class="cls-1" d="M37.19,115.67c-9.97,9.97-19.95,19.95-29.92,29.92,0-9.97,0-19.95,0-29.92,9.97,0,19.95,0,29.92,0Z"/>
  <path class="cls-1" d="M683.44,145.59c-9.97-9.97-19.95-19.95-29.92-29.92,9.97,0,19.95,0,29.92,0v29.92Z"/>
</svg>