<?xml version="1.0" encoding="UTF-8"?>
<svg id="_Слой_1" data-name="Слой 1" xmlns="http://www.w3.org/2000/svg" viewBox="0 0 802.77 741.54">
  <defs>
    <style>
      .cls-1 {
        fill: #1d1d1b;
      }

      .cls-1, .cls-2 {
        stroke-width: 0px;
      }

      .cls-2 {
        fill: #fff;
      }
    </style>
  </defs>
  <path class="cls-2" d="M711.87,719.72c-4.79-.92-9.63-1.96-14.32-2.96-10.53-2.25-21.41-4.57-32.23-5.74-20.15-2.17-35.67-9.83-50.33-24.86-45.45-46.61-92.2-93.48-137.4-138.81-23.98-24.05-48.78-48.92-73.09-73.45-2.69-2.71-4.54-6.15-6.88-10.5-1.18-2.19-2.52-4.67-4.12-7.34-2.79,3.47-5.01,6.33-6.8,8.63-3.19,4.11-5.3,6.83-7.72,9.27l-26.64,26.81c-63.09,63.5-128.32,129.15-192.97,193.24-7.95,7.88-20.19,11.88-26.77,13.56-14.22,3.62-28.94,6.28-43.17,8.85-5.84,1.05-11.87,2.14-17.79,3.28h-6.16s.02-.14.02-.14c.95-5.82,1.98-11.73,2.98-17.45,2.28-13.05,4.64-26.55,6.13-39.91,2.05-18.32,9.41-32.51,23.88-46.03,18.6-17.38,36.74-35.86,54.29-53.74,9.21-9.39,18.74-19.09,28.22-28.52,33.4-33.23,67.18-66.67,99.85-99.02,13.65-13.52,27.22-26.95,40.66-40.27l-111.3-111.02c-5.25,2.84-10.54,5.85-15.66,8.76-11.79,6.7-23.99,13.63-36.59,19.1-12.56,5.44-25.92,9.59-38.84,13.6-5.66,1.76-11.52,3.57-17.23,5.48l-.09.03-3.05-4.29,97.46-94.39-18.21-18.06c-27.17-26.95-52.84-52.41-79.09-78.27-1.71-1.69-4.73-3.73-7.59-3.92-17.87-1.24-29.87-11.19-37.76-31.33v-18s19.97-20.03,19.97-20.03l9.97-9.97,18.04-.04c12.77,5.33,26.34,13.29,30.46,31.97,1.49,6.76,4.84,13.33,8.96,17.59,22.4,23.15,45.55,46.31,67.95,68.71,5.06,5.07,10.13,10.13,15.19,15.2,1.99,1.99,4.13,3.79,6.6,5.87,1.2,1.01,2.46,2.07,3.8,3.24l96.13-96.12-.27.61c-5.21,11.88-8.64,24.77-11.95,37.24-7.22,27.16-14.05,52.82-37.69,70.14l111.75,110.97,111.54-110.68c-25.73-18.56-32.6-46.98-39.24-74.47-2.56-10.6-5.21-21.56-8.9-31.9l-.19-.52,94.63,94.14,16.47-16.39c27.99-27.84,54.42-54.14,81.34-81.09,1.66-1.66,2.88-4.33,2.97-6.49.78-17.88,10.29-29.6,30.82-38.01h18s30.01,29.95,30.01,29.95l.04,18.04c-7.89,20.19-19.9,30.15-37.79,31.38-2.87.2-5.88,2.25-7.59,3.94-26.14,25.88-51.96,51.64-79.3,78.92l-18.78,18.73,97.46,95.57-.56-.22c-11.01-4.22-22.71-7.19-34.02-10.06-28.48-7.23-55.39-14.06-73.77-39.19l-115.53,114.55c1.31,1.01,2.69,2,4.02,2.95,2.97,2.13,6.04,4.33,8.65,6.94,65.58,65.61,143.18,143.32,221.57,222.3,6.42,6.47,10.02,12.04,11.01,17.05,3.65,18.51,6.59,37.48,9.44,55.83,1.07,6.87,2.13,13.74,3.23,20.6l.02.14h-6.13Z"/>
  <path class="cls-1" d="M699.9,52.4c9.97,9.97,19.95,19.95,29.92,29.92v17.95c-6.79,17.36-17.49,29.86-37.67,31.26-2.66.18-5.69,2.02-7.67,3.97-32.14,31.83-64.14,63.8-98.17,97.74,33.09,32.45,65.1,63.84,97.12,95.24-37.83-14.49-81.92-13.79-107.82-49.32-38.65,38.33-76.09,75.45-115.73,114.76,4.25,3.28,8.97,6.16,12.77,9.97,73.96,73.99,147.87,148.04,221.57,222.3,4.7,4.73,9.75,10.81,10.97,16.99,5,25.32,8.57,50.93,12.67,76.43h-5.98c-15.5-2.98-30.89-7.01-46.54-8.69-20.12-2.16-35.71-9.91-50.25-24.83-69.57-71.33-140.35-141.48-210.5-212.26-4.09-4.13-6.32-10.1-11.08-17.96-7.71,9.56-10.79,14.17-14.62,18.03-73.05,73.5-146.02,147.09-219.61,220.06-6.79,6.73-17.21,11.1-26.71,13.52-20.05,5.11-40.61,8.2-60.95,12.13h-5.98c3.11-19.11,6.96-38.15,9.11-57.37,2.09-18.71,9.91-32.94,23.84-45.95,28.36-26.5,54.97-54.87,82.51-82.26,47.26-47.01,94.67-93.87,140.6-139.38-38.98-38.88-76.57-76.37-111.46-111.17-17.33,9.38-34.22,20.05-52.33,27.9-18.05,7.83-37.32,12.83-56.06,19.08-.98-1.38-1.96-2.75-2.93-4.13,32.06-31.05,64.11-62.09,97.48-94.41-33.08-32.8-65.17-64.68-97.4-96.42-1.98-1.95-5.01-3.78-7.67-3.96-20.18-1.4-30.86-13.91-37.65-31.26v-17.95c9.97-9.97,19.95-19.95,29.92-29.92h17.95c14.77,6.18,26.57,14.78,30.34,31.87,1.39,6.29,4.57,13.08,8.99,17.65,27.38,28.3,55.32,56.04,83.14,83.91,2.99,3,6.38,5.6,10.5,9.19,32.56-32.55,64.15-64.14,95.75-95.73-16.18,36.9-14.76,81.91-49.72,107.42,38.49,38.22,76.12,75.59,111.95,111.16,36.17-35.89,73.53-72.97,111.73-110.87-35.65-25.62-34.87-69.01-48.22-106.4,31.28,31.12,62.56,62.23,94.33,93.84,33.13-32.97,65.58-65.2,97.9-97.57,1.62-1.62,2.91-4.32,3.01-6.57.89-20.32,13.59-30.88,30.74-37.9h17.95M700.01,52.15h-18.1l-.05.02c-9.55,3.91-16.6,8.5-21.56,14.03-5.86,6.53-8.91,14.42-9.34,24.09-.09,2.13-1.3,4.77-2.94,6.41-26.88,26.92-53.28,53.18-81.23,80.99l-16.49,16.4-21.16-21.05-72.99-72.61-.78-.78.37,1.04c3.69,10.33,6.34,21.29,8.9,31.88,6.64,27.47,13.51,55.87,39.17,74.46l-36.69,36.41-74.65,74.07-50.61-50.25-60.95-60.53c23.59-17.34,30.4-42.98,37.62-70.12,3.32-12.46,6.74-25.35,11.95-37.22l.53-1.22-.94.94-95.58,95.57c-1.31-1.14-2.54-2.17-3.72-3.17-2.47-2.08-4.6-3.87-6.59-5.86-5.07-5.08-10.14-10.15-15.21-15.23-22.39-22.39-45.54-45.54-67.92-68.68-4.1-4.24-7.44-10.79-8.93-17.53-4.13-18.73-17.73-26.71-30.49-32.05l-.05-.02h-18.11l-.07.07-29.92,29.92-.07.07v18.1l.02.04c7.91,20.19,19.94,30.17,37.87,31.41,2.83.2,5.82,2.22,7.52,3.89,26.27,25.87,51.95,51.34,79.14,78.31l18.08,17.93-72.99,70.69-24.3,23.54-.15.15.12.18,2.93,4.13.11.15.18-.06c5.71-1.9,11.56-3.72,17.23-5.48,12.93-4.01,26.29-8.16,38.85-13.61,12.61-5.47,24.81-12.4,36.61-19.11,5.09-2.9,10.36-5.89,15.58-8.72l84.94,84.72,26.21,26.14c-13.43,13.31-26.99,26.73-40.63,40.24-32.65,32.33-66.41,65.76-99.79,98.96-9.48,9.43-19,19.13-28.21,28.52-17.55,17.88-35.69,36.36-54.29,53.74-14.49,13.54-21.87,27.76-23.92,46.11-1.49,13.36-3.85,26.86-6.13,39.91-1,5.71-2.03,11.62-2.98,17.44l-.05.29h6.28c5.97-1.15,12-2.23,17.84-3.29,14.23-2.57,28.95-5.22,43.17-8.85,6.6-1.68,18.86-5.68,26.83-13.59,64.6-64.06,129.8-129.68,192.86-193.13,8.92-8.98,17.84-17.95,26.76-26.93,2.43-2.44,4.54-5.16,7.73-9.27,1.77-2.27,3.95-5.09,6.69-8.5,1.56,2.6,2.87,5.03,4.03,7.17,2.35,4.36,4.21,7.81,6.91,10.53,24.32,24.54,49.13,49.42,73.12,73.47,45.2,45.32,91.93,92.18,137.38,138.78,14.68,15.05,30.22,22.73,50.4,24.9,10.82,1.16,21.7,3.49,32.22,5.74,4.68,1,9.52,2.03,14.29,2.95h6.03s.29,0,.29,0l-.05-.29c-1.1-6.86-2.19-13.84-3.23-20.6-2.85-18.35-5.79-37.33-9.44-55.84-.99-5.03-4.6-10.63-11.04-17.11-78.48-79.07-156.04-156.74-221.57-222.3-2.61-2.61-5.69-4.82-8.66-6.95-1.29-.93-2.63-1.89-3.91-2.86l42.41-42.05,72.92-72.3c18.41,25.07,45.29,31.89,73.75,39.12,11.31,2.87,23.01,5.84,34.01,10.05l1.12.43-.86-.84-7.83-7.68-89.1-87.38,18.62-18.58c27.36-27.3,53.21-53.08,79.37-78.98,1.69-1.68,4.68-3.71,7.51-3.9,17.95-1.24,29.98-11.22,37.89-31.42l.02-.04v-18.1l-.07-.07-14.96-14.96-14.96-14.96-.07-.07h0Z"/>
</svg>